<svg width="1440" height="824" viewBox="0 0 1440 824" fill="none" xmlns="http://www.w3.org/2000/svg">
<g clip-path="url(#clip0_751_2770)">
<rect width="1440" height="824" fill="white"/>
<path opacity="0.1" d="M173 102C173 167.17 114.573 220 42.5 220C-29.5732 220 -88 167.17 -88 102C-88 36.8304 -29.5732 -16 42.5 -16C114.573 -16 173 36.8304 173 102Z" fill="#1C3879"/>
<path opacity="0.1" d="M632 631C632 696.17 573.573 749 501.5 749C429.427 749 371 696.17 371 631C371 565.83 429.427 513 501.5 513C573.573 513 632 565.83 632 631Z" fill="#1C3879"/>
<path opacity="0.4" d="M906 648C906 675.614 883.614 698 856 698C828.386 698 806 675.614 806 648C806 620.386 828.386 598 856 598C883.614 598 906 620.386 906 648Z" fill="#1C3879"/>
<path opacity="0.7" d="M1227 144C1227 171.614 1204.61 194 1177 194C1149.39 194 1127 171.614 1127 144C1127 116.386 1149.39 94 1177 94C1204.61 94 1227 116.386 1227 144Z" fill="#1C3879"/>
<path opacity="0.1" d="M835 444C835 471.614 812.614 494 785 494C757.386 494 735 471.614 735 444C735 416.386 757.386 394 785 394C812.614 394 835 416.386 835 444Z" fill="#1C3879"/>
<path opacity="0.1" d="M720 303C720 330.614 697.614 353 670 353C642.386 353 620 330.614 620 303C620 275.386 642.386 253 670 253C697.614 253 720 275.386 720 303Z" fill="#1C3879"/>
</g>
<defs>
<clipPath id="clip0_751_2770">
<rect width="1440" height="824" fill="white"/>
</clipPath>
</defs>
</svg>
